<svg width="731" height="139" viewBox="0 0 731 139" fill="none" xmlns="http://www.w3.org/2000/svg">
<path d="M97.4538 62.6783C97.5686 62.8886 97.6187 63.1282 97.5979 63.367V97.0021C97.5895 98.8374 96.8556 100.595 95.5563 101.891C94.2571 103.187 92.4979 103.917 90.6627 103.921C89.7618 103.915 88.8711 103.731 88.0416 103.379C87.2121 103.028 86.4603 102.516 85.8293 101.873C85.1982 101.23 84.7004 100.469 84.3645 99.6328C84.0285 98.797 83.861 97.9029 83.8716 97.0021V62.1337C83.7481 58.4673 82.2049 54.9923 79.5676 52.4423C76.9303 49.8923 73.4053 48.4668 69.7368 48.4668C66.0683 48.4668 62.5434 49.8923 59.9061 52.4423C57.2688 54.9923 55.7255 58.4673 55.6021 62.1337V97.0662C55.6126 97.9683 55.4446 98.8637 55.1076 99.7006C54.7707 100.538 54.2715 101.3 53.6387 101.943C53.006 102.586 52.2523 103.097 51.4209 103.448C50.5896 103.799 49.6972 103.981 48.795 103.985C46.9612 103.981 45.2037 103.251 43.907 101.954C42.6103 100.657 41.88 98.9 41.8757 97.0662V62.1337C41.7526 58.4841 40.2162 55.0251 37.5909 52.4869C34.9656 49.9487 31.4567 48.5298 27.805 48.5298C24.1533 48.5298 20.6445 49.9487 18.0192 52.4869C15.3939 55.0251 13.8575 58.4841 13.7343 62.1337V97.0662C13.7792 97.9954 13.635 98.924 13.3104 99.7957C12.9857 100.668 12.4874 101.464 11.8457 102.138C11.204 102.811 10.4322 103.347 9.5771 103.714C8.72201 104.08 7.80143 104.269 6.87117 104.269C5.94091 104.269 5.02034 104.08 4.16526 103.714C3.31017 103.347 2.53837 102.811 1.89665 102.138C1.25493 101.464 0.75664 100.668 0.431996 99.7957C0.107351 98.924 -0.0368915 97.9954 0.00800877 97.0662V62.1337C0.0249827 54.7564 2.9697 47.6875 8.19525 42.48C13.4208 37.2725 20.4998 34.3522 27.8771 34.3607C31.8521 34.3496 35.7819 35.2034 39.394 36.8629C43.0061 38.5223 46.2139 40.9477 48.795 43.9707C51.3806 40.949 54.5915 38.5247 58.2059 36.8654C61.8203 35.2062 65.7518 34.3516 69.7288 34.3607C77.0978 34.3522 84.1696 37.2658 89.3937 42.463C94.6179 47.6602 97.5682 54.7167 97.5979 62.0857C97.5979 62.406 97.5979 62.5501 97.4538 62.6783Z" fill="#342A21"/>
<path d="M235.822 41.0557C235.818 42.8937 235.086 44.6553 233.786 45.955C232.487 47.2547 230.725 47.9867 228.887 47.9909C226.12 47.9888 223.379 48.5321 220.822 49.5896C218.265 50.6471 215.941 52.1982 213.984 54.1542C212.026 56.1102 210.473 58.4327 209.414 60.9891C208.354 63.5455 207.809 66.2857 207.809 69.0529V96.922C207.809 98.7401 207.087 100.484 205.801 101.769C204.516 103.055 202.772 103.777 200.954 103.777C199.136 103.777 197.392 103.055 196.107 101.769C194.821 100.484 194.099 98.7401 194.099 96.922V69.0529C194.103 59.8278 197.77 50.9817 204.293 44.4585C210.816 37.9354 219.662 34.2688 228.887 34.2646C229.789 34.2519 230.685 34.4178 231.523 34.7528C232.36 35.0878 233.124 35.5853 233.768 36.2165C234.413 36.8478 234.926 37.6003 235.279 38.4309C235.631 39.2614 235.816 40.1535 235.822 41.0557V41.0557Z" fill="#342A21"/>
<path d="M245.529 18.4554C244.239 17.1682 243.514 15.4217 243.513 13.5999C243.511 11.7782 244.234 10.0304 245.521 8.74121C246.808 7.45197 248.554 6.72685 250.376 6.72534C252.198 6.72384 253.946 7.44609 255.235 8.73321C255.871 9.37052 256.376 10.1269 256.719 10.9592C257.063 11.7915 257.24 12.6834 257.239 13.5839C257.239 14.4845 257.06 15.3761 256.715 16.2078C256.37 17.0395 255.864 17.7951 255.227 18.4313C254.589 19.0676 253.833 19.5721 253.001 19.916C252.169 20.26 251.277 20.4366 250.376 20.4359C249.476 20.4351 248.584 20.257 247.752 19.9117C246.92 19.5664 246.165 19.0606 245.529 18.4233V18.4554ZM243.446 96.9373V41.055C243.532 39.2921 244.292 37.6296 245.57 36.4121C246.847 35.1946 248.545 34.5154 250.31 34.5154C252.075 34.5154 253.772 35.1946 255.05 36.4121C256.327 37.6296 257.088 39.2921 257.173 41.055V96.9213C257.218 97.8505 257.073 98.7791 256.749 99.6508C256.424 100.523 255.926 101.319 255.284 101.993C254.642 102.666 253.871 103.203 253.016 103.569C252.16 103.935 251.24 104.124 250.31 104.124C249.379 104.124 248.459 103.935 247.604 103.569C246.749 103.203 245.977 102.666 245.335 101.993C244.693 101.319 244.195 100.523 243.87 99.6508C243.546 98.7791 243.402 97.8505 243.446 96.9213V96.9373Z" fill="#342A21"/>
<path d="M377.634 68.9245V96.8256C377.679 97.7548 377.535 98.6834 377.21 99.5552C376.885 100.427 376.387 101.224 375.745 101.897C375.104 102.571 374.332 103.107 373.477 103.473C372.622 103.84 371.701 104.028 370.771 104.028C369.841 104.028 368.92 103.84 368.065 103.473C367.21 103.107 366.438 102.571 365.796 101.897C365.155 101.224 364.656 100.427 364.332 99.5552C364.007 98.6834 363.863 97.7548 363.908 96.8256V68.9245C363.985 66.1086 363.498 63.3058 362.474 60.6816C361.45 58.0574 359.91 55.665 357.946 53.6459C355.982 51.6268 353.633 50.0219 351.038 48.926C348.443 47.8301 345.655 47.2655 342.838 47.2655C340.021 47.2655 337.232 47.8301 334.637 48.926C332.042 50.0219 329.693 51.6268 327.729 53.6459C325.765 55.665 324.225 58.0574 323.202 60.6816C322.178 63.3058 321.69 66.1086 321.768 68.9245V96.8256C321.813 97.7548 321.668 98.6834 321.344 99.5552C321.019 100.427 320.521 101.224 319.879 101.897C319.237 102.571 318.466 103.107 317.61 103.473C316.755 103.84 315.835 104.028 314.905 104.028C313.974 104.028 313.054 103.84 312.199 103.473C311.343 103.107 310.572 102.571 309.93 101.897C309.288 101.224 308.79 100.427 308.465 99.5552C308.141 98.6834 307.996 97.7548 308.041 96.8256V68.9245C307.942 64.2921 308.769 59.6866 310.473 55.3779C312.177 51.0692 314.724 47.1441 317.965 43.8329C321.206 40.5216 325.075 37.8908 329.346 36.0947C333.618 34.2987 338.204 33.3735 342.838 33.3735C347.471 33.3735 352.058 34.2987 356.329 36.0947C360.6 37.8908 364.47 40.5216 367.711 43.8329C370.952 47.1441 373.499 51.0692 375.203 55.3779C376.907 59.6866 377.733 64.2921 377.634 68.9245V68.9245Z" fill="#342A21"/>
<path d="M453.874 69.4692V96.6977C453.908 97.6154 453.752 98.5301 453.416 99.3849C453.08 100.24 452.572 101.016 451.923 101.665C451.273 102.315 450.497 102.823 449.642 103.159C448.788 103.495 447.873 103.651 446.955 103.617C445.196 103.464 443.551 102.679 442.326 101.407C441.101 100.135 440.378 98.4617 440.292 96.6977C434.541 101.458 427.233 103.922 419.775 103.617C400.234 103.617 384.714 89.0737 384.714 69.5173C384.672 64.8967 385.549 60.3138 387.294 56.0355C389.04 51.7571 391.619 47.8688 394.882 44.5969C398.145 41.3251 402.026 38.735 406.3 36.9777C410.574 35.2203 415.154 34.3307 419.775 34.3606C439.331 34.3606 453.874 49.9288 453.874 69.4692ZM440.292 69.4692C440.292 57.8251 431.419 47.9908 419.775 47.9908C414.104 48.0696 408.688 50.3583 404.68 54.3698C400.672 58.3813 398.387 63.7988 398.312 69.4692C398.312 81.1134 408.147 89.9867 419.791 89.9867C422.498 90.0367 425.188 89.5401 427.699 88.5265C430.21 87.5129 432.491 86.0032 434.405 84.0877C436.319 82.1722 437.827 79.8903 438.838 77.3785C439.85 74.8667 440.344 72.1766 440.292 69.4692V69.4692Z" fill="#342A21"/>
<path d="M530.818 103.713C530.815 111.585 528.144 119.224 523.241 125.383C518.339 131.542 511.494 135.858 503.823 137.627C496.152 139.396 488.108 138.514 481.003 135.124C473.898 131.734 468.152 126.036 464.701 118.961C464.3 118.152 464.065 117.271 464.01 116.37C463.954 115.469 464.08 114.566 464.378 113.714C464.676 112.862 465.142 112.078 465.748 111.408C466.353 110.739 467.087 110.197 467.905 109.815C469.524 109.025 471.389 108.901 473.098 109.47C474.808 110.039 476.227 111.256 477.05 112.858C479.113 117.116 482.548 120.556 486.803 122.625C491.059 124.693 495.886 125.27 500.509 124.262C505.131 123.254 509.28 120.721 512.288 117.069C515.296 113.417 516.988 108.859 517.092 104.129V96.5053C511.951 100.466 505.803 102.906 499.345 103.547C492.887 104.188 486.379 103.005 480.56 100.132C474.741 97.2593 469.844 92.8119 466.427 87.2953C463.009 81.7786 461.207 75.414 461.226 68.9245C461.126 64.2921 461.953 59.6866 463.657 55.3779C465.361 51.0692 467.908 47.1441 471.149 43.8329C474.39 40.5216 478.259 37.8908 482.531 36.0947C486.802 34.2987 491.388 33.3735 496.022 33.3735C500.655 33.3735 505.242 34.2987 509.513 36.0947C513.784 37.8908 517.654 40.5216 520.895 43.8329C524.136 47.1441 526.683 51.0692 528.387 55.3779C530.091 59.6866 530.918 64.2921 530.818 68.9245V103.713ZM517.092 68.9245C517.095 64.7549 515.862 60.6782 513.547 57.2098C511.233 53.7414 507.942 51.0373 504.091 49.4395C500.24 47.8417 496.001 47.422 491.912 48.2335C487.822 49.045 484.065 51.0512 481.115 53.9984C478.166 56.9455 476.157 60.7013 475.342 64.7904C474.527 68.8796 474.944 73.1185 476.539 76.9709C478.134 80.8234 480.835 84.1163 484.302 86.4331C487.768 88.7498 491.844 89.9865 496.014 89.9865C501.595 89.9654 506.941 87.7401 510.889 83.7952C514.837 79.8504 517.067 74.5054 517.092 68.9245V68.9245Z" fill="#342A21"/>
<path d="M607.074 69.4693V96.6977C607.099 97.6136 606.935 98.5248 606.594 99.375C606.252 100.225 605.74 100.996 605.088 101.64C604.437 102.284 603.66 102.788 602.806 103.12C601.952 103.451 601.038 103.604 600.123 103.569C598.363 103.416 596.719 102.631 595.494 101.359C594.269 100.087 593.546 98.4136 593.46 96.6496C587.697 101.421 580.37 103.886 572.894 103.569C553.354 103.569 537.834 89.0257 537.834 69.4693C537.798 64.8527 538.679 60.275 540.428 56.0022C542.177 51.7294 544.757 47.8468 548.019 44.5801C551.282 41.3133 555.161 38.7276 559.431 36.9732C563.701 35.2188 568.278 34.3307 572.894 34.3606C592.515 34.3606 607.074 49.9288 607.074 69.4693ZM593.476 69.4693C593.476 57.8251 584.619 47.9908 572.959 47.9908C567.285 48.0655 561.865 50.3524 557.854 54.3643C553.842 58.3762 551.555 63.796 551.48 69.4693C551.48 81.1134 561.33 89.9867 572.959 89.9867C575.668 90.0412 578.36 89.5477 580.874 88.5359C583.388 87.5241 585.672 86.0148 587.588 84.0986C589.504 82.1824 591.013 79.8989 592.025 77.3849C593.037 74.871 593.53 72.1786 593.476 69.4693V69.4693Z" fill="#342A21"/>
<path d="M657.671 41.0556C657.666 42.8936 656.934 44.6552 655.635 45.9548C654.335 47.2545 652.573 47.9866 650.735 47.9908H640.901V96.9219C640.946 97.8511 640.802 98.7797 640.477 99.6515C640.152 100.523 639.654 101.32 639.012 101.993C638.371 102.667 637.599 103.203 636.744 103.569C635.889 103.936 634.968 104.125 634.038 104.125C633.108 104.125 632.187 103.936 631.332 103.569C630.477 103.203 629.705 102.667 629.063 101.993C628.422 101.32 627.923 100.523 627.599 99.6515C627.274 98.7797 627.13 97.8511 627.175 96.9219V47.9908H617.196C615.381 47.9572 613.651 47.2112 612.381 45.9138C611.11 44.6163 610.401 42.8714 610.405 41.0556C610.405 39.2545 611.121 37.5271 612.394 36.2535C613.668 34.98 615.395 34.2645 617.196 34.2645H627.175V6.53953C627.26 4.77665 628.02 3.11415 629.298 1.89665C630.576 0.679142 632.273 0 634.038 0C635.803 0 637.5 0.679142 638.778 1.89665C640.056 3.11415 640.816 4.77665 640.901 6.53953V34.2645H650.735C651.638 34.2496 652.535 34.4141 653.374 34.7483C654.212 35.0826 654.976 35.5799 655.621 36.2116C656.266 36.8433 656.78 37.5967 657.131 38.4282C657.483 39.2597 657.666 40.1527 657.671 41.0556V41.0556Z" fill="#342A21"/>
<path d="M730.996 69.4692V96.6977C731.029 97.6154 730.873 98.5301 730.537 99.3849C730.202 100.24 729.693 101.016 729.044 101.665C728.394 102.315 727.618 102.823 726.763 103.159C725.909 103.495 724.994 103.651 724.076 103.617C722.317 103.464 720.672 102.679 719.447 101.407C718.222 100.135 717.5 98.4617 717.413 96.6977C711.663 101.458 704.355 103.922 696.896 103.617C677.356 103.617 661.835 89.0737 661.835 69.5173C661.793 64.8967 662.67 60.3138 664.416 56.0355C666.161 51.7571 668.741 47.8688 672.004 44.5969C675.266 41.3251 679.148 38.735 683.421 36.9777C687.695 35.2203 692.275 34.3307 696.896 34.3606C716.452 34.3606 730.996 49.9288 730.996 69.4692ZM717.413 69.4692C717.413 57.8251 708.54 47.9908 696.896 47.9908C691.22 48.0613 685.796 50.3464 681.781 54.3587C677.765 58.3711 675.476 63.7933 675.402 69.4692C675.402 81.1134 685.236 89.9867 696.88 89.9867C699.59 90.0411 702.283 89.5477 704.798 88.5361C707.313 87.5244 709.597 86.0154 711.515 84.0995C713.432 82.1835 714.943 79.9001 715.957 77.3861C716.97 74.8721 717.466 72.1794 717.413 69.4692V69.4692Z" fill="#342A21"/>
<path d="M175.344 106.244L158.943 89.8265C157.837 88.7374 159.103 85.6782 161.842 82.9393C164.58 80.2005 167.544 79.0312 168.633 80.1364L185.034 96.5375C186.187 97.6747 184.922 100.734 182.279 103.377C179.636 106.019 176.481 107.381 175.344 106.244Z" fill="#342A21"/>
<path d="M175.872 69.4373C175.85 67.3807 175.662 65.3293 175.311 63.3028C175.311 63.0466 175.311 62.7903 175.231 62.534C175.023 61.4609 174.622 60.4679 174.318 59.4268C172.242 52.3279 167.935 46.0858 162.037 41.6236C156.138 37.1614 148.96 34.7159 141.564 34.6489C132.344 34.6617 123.506 38.3319 116.99 44.8542C110.474 51.3764 106.812 60.2177 106.808 69.4373C106.87 76.821 109.305 83.989 113.752 89.8837C118.199 95.7784 124.423 100.088 131.505 102.175C132.563 102.48 133.588 102.88 134.709 103.088C134.933 103.088 135.157 103.088 135.381 103.088C137.434 103.444 139.512 103.637 141.596 103.665C150.657 103.598 159.33 99.972 165.742 93.5689C172.154 87.1657 175.792 78.4987 175.872 69.4373V69.4373ZM141.82 48.1991C153.464 48.1991 162.322 58.0333 162.322 69.6775C162.374 72.3841 161.879 75.0735 160.867 77.5844C159.856 80.0954 158.347 82.3763 156.433 84.2905C154.519 86.2048 152.238 87.7129 149.727 88.7247C147.216 89.7365 144.527 90.2311 141.82 90.1789C130.176 90.1789 120.342 81.3056 120.342 69.6775C120.416 64.0043 122.703 58.5844 126.715 54.5725C130.727 50.5606 136.147 48.2737 141.82 48.1991V48.1991Z" fill="#342A21"/>
</svg>
