<svg width="143" height="66" viewBox="0 0 143 66" fill="none" xmlns="http://www.w3.org/2000/svg">
<path d="M64.8893 36.8257C64.9639 36.9697 64.9963 37.1318 64.9829 37.2934V59.7443C64.9774 60.9666 64.4895 62.1372 63.6252 63.0015C62.7609 63.8658 61.5903 64.3537 60.368 64.3592C59.767 64.3551 59.1727 64.2324 58.6193 63.998C58.0659 63.7636 57.5643 63.4222 57.1432 62.9934C56.7221 62.5646 56.3899 62.0568 56.1656 61.4992C55.9413 60.9417 55.8294 60.3453 55.8362 59.7443V36.4619C55.755 34.0172 54.7268 31.6997 52.9686 29.999C51.2105 28.2983 48.8602 27.3476 46.4141 27.3476C43.968 27.3476 41.6177 28.2983 39.8596 29.999C38.1015 31.6997 37.0732 34.0172 36.992 36.4619V59.7443C37.0003 60.3448 36.8896 60.9409 36.6665 61.4985C36.4433 62.056 36.1121 62.5638 35.6918 62.9928C35.2716 63.4217 34.7706 63.7633 34.2178 63.9978C33.6649 64.2323 33.0712 64.3552 32.4707 64.3592C31.2484 64.3537 30.0777 63.8658 29.2135 63.0015C28.3492 62.1372 27.8612 60.9666 27.8557 59.7443V36.4619C27.8557 33.9809 26.8702 31.6015 25.1159 29.8472C23.3615 28.0929 20.9822 27.1073 18.5012 27.1073C16.0202 27.1073 13.6409 28.0929 11.8865 29.8472C10.1322 31.6015 9.14667 33.9809 9.14667 36.4619V59.7443C9.14667 60.9572 8.66483 62.1205 7.80717 62.9781C6.9495 63.8358 5.78625 64.3176 4.57333 64.3176C3.36041 64.3176 2.19716 63.8358 1.3395 62.9781C0.481832 62.1205 0 60.9572 0 59.7443V36.4619C0.0164397 31.5684 1.96766 26.88 5.42791 23.4198C8.88815 19.9595 13.5765 18.0083 18.47 17.9919C21.1177 17.9805 23.7363 18.5444 26.1447 19.6445C28.553 20.7446 30.6937 22.3547 32.4187 24.3634C34.1416 22.3549 36.2805 20.7449 38.6871 19.6448C41.0938 18.5446 43.7108 17.9806 46.357 17.9919C51.2604 17.9946 55.9632 19.9394 59.4363 23.4008C62.9094 26.8623 64.8701 31.5585 64.8893 36.4619C64.8893 36.6386 64.8893 36.7425 64.8893 36.8257Z" fill="#342A21"/>
<path d="M142.086 4.57333V41.8044C142.086 43.0173 141.604 44.1806 140.746 45.0382C139.888 45.8959 138.725 46.3777 137.512 46.3777C136.299 46.3777 135.136 45.8959 134.278 45.0382C133.421 44.1806 132.939 43.0173 132.939 41.8044V4.57333C132.939 3.36041 133.421 2.19716 134.278 1.3395C135.136 0.48183 136.299 0 137.512 0C138.725 0 139.888 0.48183 140.746 1.3395C141.604 2.19716 142.086 3.36041 142.086 4.57333Z" fill="#342A21"/>
<path d="M140.693 56.8548C141.315 57.491 141.736 58.2968 141.902 59.1711C142.068 60.0453 141.973 60.9492 141.628 61.7695C141.283 62.5898 140.703 63.29 139.962 63.7824C139.22 64.2748 138.35 64.5374 137.46 64.5374C136.57 64.5374 135.7 64.2748 134.959 63.7824C134.218 63.29 133.638 62.5898 133.293 61.7695C132.948 60.9492 132.852 60.0453 133.019 59.1711C133.185 58.2968 133.606 57.491 134.228 56.8548C135.101 56.0272 136.258 55.5659 137.46 55.5659C138.663 55.5659 139.82 56.0272 140.693 56.8548Z" fill="#342A21"/>
<path d="M117.618 65.7313L106.683 54.7969C105.956 54.0589 106.787 52.0217 108.617 50.1924C110.446 48.363 112.421 47.5939 113.148 48.3214L124.135 59.2663C124.904 60.025 124.052 62.0622 122.295 63.8188C120.539 65.5754 118.377 66.49 117.618 65.7313Z" fill="#342A21"/>
<path d="M117.982 41.1914C117.965 39.8216 117.837 38.4554 117.597 37.1066C117.597 36.9403 117.597 36.7636 117.597 36.5973C117.462 35.8801 117.192 35.2149 116.994 34.5185C115.611 29.7872 112.742 25.6267 108.811 22.6523C104.88 19.678 100.096 18.0477 95.1672 18.0025C89.6268 17.9562 84.2563 19.9131 80.0445 23.5127C75.8326 27.1124 73.063 32.1125 72.2456 37.5924C71.4283 43.0723 72.6182 48.663 75.5962 53.3351C78.5743 58.0072 83.14 61.4461 88.4527 63.0187C89.1595 63.2161 89.8351 63.4864 90.5315 63.6319C90.677 63.6319 90.8329 63.6319 90.9888 63.6319C92.3609 63.8818 93.7518 64.0139 95.1464 64.0269C101.186 63.9726 106.963 61.5493 111.234 57.2786C115.504 53.0078 117.928 47.2309 117.982 41.1914V41.1914ZM95.2711 27.0348C103.035 27.0348 108.95 33.5934 108.95 41.3577C108.983 43.1628 108.653 44.9562 107.977 46.6305C107.302 48.3048 106.295 49.8255 105.018 51.1017C103.741 52.3778 102.219 53.3831 100.545 54.0574C98.8698 54.7316 97.0762 55.061 95.2711 55.0257C87.5068 55.0257 80.9483 49.1116 80.9483 41.3577C81.0072 37.5774 82.5351 33.9685 85.2085 31.2951C87.8819 28.6217 91.4908 27.0938 95.2711 27.0348Z" fill="#342A21"/>
</svg>
