<svg width="51" height="48" viewBox="0 0 51 48" fill="none" xmlns="http://www.w3.org/2000/svg">
<path d="M44.24 46.8199L33.72 36.2999C33.01 35.5999 33.82 33.6399 35.58 31.8799C37.34 30.1199 39.24 29.3799 39.94 30.0799L50.46 40.5999C51.19 41.3299 50.38 43.2899 48.69 44.9899C47 46.6899 45 47.5499 44.24 46.8199Z" fill="#342A21"/>
<path d="M44.58 23.21C44.5621 21.8926 44.4417 20.5787 44.22 19.28C44.22 19.12 44.22 18.95 44.22 18.79C44.08 18.1 43.83 17.47 43.64 16.79C42.5598 13.1128 40.5424 9.7795 37.7855 7.11712C35.0287 4.45474 31.6271 2.55469 27.9145 1.60336C24.2019 0.652027 20.3058 0.682085 16.6083 1.69058C12.9108 2.69908 9.53893 4.65138 6.82348 7.35598C4.10803 10.0606 2.14225 13.4246 1.11895 17.118C0.0956607 20.8114 0.0500052 24.7074 0.986466 28.4238C1.92293 32.1402 3.80934 35.5493 6.46066 38.3168C9.11199 41.0843 12.4372 43.1151 16.11 44.21C16.8 44.41 17.45 44.67 18.16 44.81C18.3 44.81 18.45 44.81 18.59 44.81C19.9111 45.0414 21.2488 45.1652 22.59 45.18C28.4065 45.1407 33.974 42.8141 38.0889 38.7029C42.2037 34.5918 44.5355 29.0265 44.58 23.21ZM22.74 9.59997C30.2 9.59997 35.89 15.91 35.89 23.38C35.9226 25.1154 35.6047 26.8395 34.9553 28.4491C34.3058 30.0587 33.3383 31.5207 32.1105 32.7476C30.8827 33.9744 29.42 34.9409 27.8098 35.5891C26.1997 36.2373 24.4754 36.5539 22.74 36.52C15.27 36.52 9 30.84 9 23.38C9.05643 19.7498 10.5209 16.2835 13.0844 13.7125C15.6479 11.1415 19.11 9.66696 22.74 9.59997V9.59997Z" fill="#342A21"/>
</svg>
